<svg width="1238" height="528" viewBox="0 0 1238 528" fill="none" xmlns="http://www.w3.org/2000/svg">
<path d="M58.75 48H20.5C13.8333 48 8.75 45.75 5.25 41.25C1.91667 36.75 0.25 31.5833 0.25 25.75C0.25 19.9167 1.91667 14.9167 5.25 10.75C8.58333 6.41666 13.6667 4.25 20.5 4.25H149C155.833 4.25 160.917 6.41666 164.25 10.75C167.583 14.9167 169.25 19.9167 169.25 25.75C169.25 31.5833 167.5 36.75 164 41.25C160.667 45.75 155.667 48 149 48H110.75V223.5H58.75V48ZM175.504 76.5C175.504 58.5 179.671 43.8333 188.004 32.5C196.337 21 206.837 12.75 219.504 7.75C232.171 2.74999 245.421 0.249988 259.254 0.249988C272.754 0.249988 285.837 2.74999 298.504 7.75C311.337 12.75 321.921 21 330.254 32.5C338.754 43.8333 343.004 58.5 343.004 76.5V151.25C343.004 169.25 338.754 184 330.254 195.5C321.921 206.833 311.337 215 298.504 220C285.837 225 272.754 227.5 259.254 227.5C245.754 227.5 232.587 225 219.754 220C207.087 215 196.504 206.833 188.004 195.5C179.671 184 175.504 169.25 175.504 151.25V76.5ZM292.004 75C292.004 64.5 288.921 56.5833 282.754 51.25C276.754 45.75 268.921 43 259.254 43C249.587 43 241.671 45.75 235.504 51.25C229.504 56.5833 226.504 64.5 226.504 75V152.75C226.504 162.417 229.587 170.167 235.754 176C242.087 181.833 249.921 184.75 259.254 184.75C268.587 184.75 276.337 181.833 282.504 176C288.837 170.167 292.004 162.417 292.004 152.75V75ZM366.754 25.75C366.754 20.4167 368.254 15.8333 371.254 12C374.254 8.16665 377.921 5.33332 382.254 3.49999C386.754 1.49999 391.171 0.499985 395.504 0.499985C401.504 0.499985 407.171 1.83332 412.504 4.49999C417.837 6.99999 421.671 10.5833 424.004 15.25L485.004 140.25V24C485.004 16.6667 487.171 10.9167 491.504 6.74999C496.004 2.41666 501.421 0.249988 507.754 0.249988C514.087 0.249988 519.421 2.41666 523.754 6.74999C528.254 10.9167 530.504 16.6667 530.504 24V202.5C530.504 207.667 529.087 212.083 526.254 215.75C523.421 219.417 519.837 222.167 515.504 224C511.171 225.833 506.921 226.75 502.754 226.75C496.587 226.75 490.671 225.417 485.004 222.75C479.337 220.25 475.421 216.667 473.254 212L412.254 86V223.5H366.754V25.75ZM677.416 91C684.083 91 689.083 93.25 692.416 97.75C695.916 102.25 697.666 107.333 697.666 113C697.666 118.667 695.999 123.667 692.666 128C689.333 132.167 684.249 134.25 677.416 134.25H609.166V172.5C609.166 175.5 609.666 177.5 610.666 178.5C611.666 179.333 613.583 179.75 616.416 179.75H682.166C688.999 179.75 694.083 181.917 697.416 186.25C700.749 190.417 702.416 195.417 702.416 201.25C702.416 207.083 700.666 212.25 697.166 216.75C693.833 221.25 688.833 223.5 682.166 223.5H596.916C586.916 223.5 579.083 222.167 573.416 219.5C567.749 217 563.749 212.917 561.416 207.25C559.083 201.583 557.916 193.833 557.916 184V43.75C557.916 33.9167 559.083 26.1667 561.416 20.5C563.749 14.8333 567.749 10.75 573.416 8.24999C579.083 5.58333 586.916 4.25 596.916 4.25H679.666C686.333 4.25 691.333 6.49999 694.666 11C698.166 15.5 699.916 20.6667 699.916 26.5C699.916 32.3333 698.249 37.4167 694.916 41.75C691.583 45.9167 686.499 48 679.666 48H616.416C613.583 48 611.666 48.5 610.666 49.5C609.666 50.3333 609.166 52.25 609.166 55.25V91H677.416ZM60.5 448C60.5 459.167 63.8333 467.833 70.5 474C77.3333 480.167 85.5833 483.25 95.25 483.25C105.75 483.25 114.583 481.667 121.75 478.5C123.75 477.5 125.917 476.5 128.25 475.5C130.583 474.333 132.75 473.583 134.75 473.25C136.75 472.917 138.25 472.75 139.25 472.75C146.417 472.75 152.083 476.083 156.25 482.75C158.25 486.25 159.25 489.75 159.25 493.25C159.25 496.583 158.417 499.833 156.75 503C155.083 506 152.75 508.75 149.75 511.25C143.25 516.583 135.083 520.583 125.25 523.25C115.417 526.083 105.417 527.5 95.25 527.5C79.9167 527.5 65.75 524.75 52.75 519.25C39.75 513.917 29.1667 505.5 21 494C13 482.333 9 467.75 9 450.25V377.5C9 360 13 345.5 21 334C29.1667 322.333 39.75 313.833 52.75 308.5C65.75 303 79.9167 300.25 95.25 300.25C105.917 300.25 115.5 301.417 124 303.75C132.5 305.917 139.333 308.833 144.5 312.5C148.167 315 151 318.083 153 321.75C155.167 325.25 156.25 328.917 156.25 332.75C156.25 336.25 155.417 339.417 153.75 342.25C151.75 345.917 149 348.667 145.5 350.5C142.167 352.333 138.583 353.25 134.75 353.25C131.583 353.25 128.417 352.583 125.25 351.25C122.25 349.917 119.583 348.75 117.25 347.75C114.083 346.583 110.833 345.75 107.5 345.25C104.333 344.75 100.25 344.5 95.25 344.5C85.5833 344.5 77.3333 347.583 70.5 353.75C63.8333 359.917 60.5 368.583 60.5 379.75V448ZM175.504 376.5C175.504 358.5 179.671 343.833 188.004 332.5C196.337 321 206.837 312.75 219.504 307.75C232.171 302.75 245.421 300.25 259.254 300.25C272.754 300.25 285.837 302.75 298.504 307.75C311.337 312.75 321.921 321 330.254 332.5C338.754 343.833 343.004 358.5 343.004 376.5V451.25C343.004 469.25 338.754 484 330.254 495.5C321.921 506.833 311.337 515 298.504 520C285.837 525 272.754 527.5 259.254 527.5C245.754 527.5 232.587 525 219.754 520C207.087 515 196.504 506.833 188.004 495.5C179.671 484 175.504 469.25 175.504 451.25V376.5ZM292.004 375C292.004 364.5 288.921 356.583 282.754 351.25C276.754 345.75 268.921 343 259.254 343C249.587 343 241.671 345.75 235.504 351.25C229.504 356.583 226.504 364.5 226.504 375V452.75C226.504 462.417 229.587 470.167 235.754 476C242.087 481.833 249.921 484.75 259.254 484.75C268.587 484.75 276.337 481.833 282.504 476C288.837 470.167 292.004 462.417 292.004 452.75V375ZM366.754 325.75C366.754 320.417 368.254 315.833 371.254 312C374.254 308.167 377.921 305.333 382.254 303.5C386.754 301.5 391.171 300.5 395.504 300.5C401.504 300.5 407.171 301.833 412.504 304.5C417.837 307 421.671 310.583 424.004 315.25L485.004 440.25V324C485.004 316.667 487.171 310.917 491.504 306.75C496.004 302.417 501.421 300.25 507.754 300.25C514.087 300.25 519.421 302.417 523.754 306.75C528.254 310.917 530.504 316.667 530.504 324V502.5C530.504 507.667 529.087 512.083 526.254 515.75C523.421 519.417 519.837 522.167 515.504 524C511.171 525.833 506.921 526.75 502.754 526.75C496.587 526.75 490.671 525.417 485.004 522.75C479.337 520.25 475.421 516.667 473.254 512L412.254 386V523.5H366.754V325.75ZM557.916 325.75C557.916 320.417 559.416 315.833 562.416 312C565.416 308.167 569.083 305.333 573.416 303.5C577.916 301.5 582.333 300.5 586.666 300.5C592.666 300.5 598.333 301.833 603.666 304.5C608.999 307 612.833 310.583 615.166 315.25L676.166 440.25V324C676.166 316.667 678.333 310.917 682.666 306.75C687.166 302.417 692.583 300.25 698.916 300.25C705.249 300.25 710.583 302.417 714.916 306.75C719.416 310.917 721.666 316.667 721.666 324V502.5C721.666 507.667 720.249 512.083 717.416 515.75C714.583 519.417 710.999 522.167 706.666 524C702.333 525.833 698.083 526.75 693.916 526.75C687.749 526.75 681.833 525.417 676.166 522.75C670.499 520.25 666.583 516.667 664.416 512L603.416 386V523.5H557.916V325.75ZM868.578 391C875.245 391 880.245 393.25 883.578 397.75C887.078 402.25 888.828 407.333 888.828 413C888.828 418.667 887.161 423.667 883.828 428C880.495 432.167 875.411 434.25 868.578 434.25H800.328V472.5C800.328 475.5 800.828 477.5 801.828 478.5C802.828 479.333 804.745 479.75 807.578 479.75H873.328C880.161 479.75 885.245 481.917 888.578 486.25C891.911 490.417 893.578 495.417 893.578 501.25C893.578 507.083 891.828 512.25 888.328 516.75C884.995 521.25 879.995 523.5 873.328 523.5H788.078C778.078 523.5 770.245 522.167 764.578 519.5C758.911 517 754.911 512.917 752.578 507.25C750.245 501.583 749.078 493.833 749.078 484V343.75C749.078 333.917 750.245 326.167 752.578 320.5C754.911 314.833 758.911 310.75 764.578 308.25C770.245 305.583 778.078 304.25 788.078 304.25H870.828C877.495 304.25 882.495 306.5 885.828 311C889.328 315.5 891.078 320.667 891.078 326.5C891.078 332.333 889.411 337.417 886.078 341.75C882.745 345.917 877.661 348 870.828 348H807.578C804.745 348 802.828 348.5 801.828 349.5C800.828 350.333 800.328 352.25 800.328 355.25V391H868.578ZM962.6 448C962.6 459.167 965.933 467.833 972.6 474C979.433 480.167 987.683 483.25 997.35 483.25C1007.85 483.25 1016.68 481.667 1023.85 478.5C1025.85 477.5 1028.02 476.5 1030.35 475.5C1032.68 474.333 1034.85 473.583 1036.85 473.25C1038.85 472.917 1040.35 472.75 1041.35 472.75C1048.52 472.75 1054.18 476.083 1058.35 482.75C1060.35 486.25 1061.35 489.75 1061.35 493.25C1061.35 496.583 1060.52 499.833 1058.85 503C1057.18 506 1054.85 508.75 1051.85 511.25C1045.35 516.583 1037.18 520.583 1027.35 523.25C1017.52 526.083 1007.52 527.5 997.35 527.5C982.016 527.5 967.85 524.75 954.85 519.25C941.85 513.917 931.266 505.5 923.1 494C915.1 482.333 911.1 467.75 911.1 450.25V377.5C911.1 360 915.1 345.5 923.1 334C931.266 322.333 941.85 313.833 954.85 308.5C967.85 303 982.016 300.25 997.35 300.25C1008.02 300.25 1017.6 301.417 1026.1 303.75C1034.6 305.917 1041.43 308.833 1046.6 312.5C1050.27 315 1053.1 318.083 1055.1 321.75C1057.27 325.25 1058.35 328.917 1058.35 332.75C1058.35 336.25 1057.52 339.417 1055.85 342.25C1053.85 345.917 1051.1 348.667 1047.6 350.5C1044.27 352.333 1040.68 353.25 1036.85 353.25C1033.68 353.25 1030.52 352.583 1027.35 351.25C1024.35 349.917 1021.68 348.75 1019.35 347.75C1016.18 346.583 1012.93 345.75 1009.6 345.25C1006.43 344.75 1002.35 344.5 997.35 344.5C987.683 344.5 979.433 347.583 972.6 353.75C965.933 359.917 962.6 368.583 962.6 379.75V448ZM1127.35 348H1089.1C1082.44 348 1077.35 345.75 1073.85 341.25C1070.52 336.75 1068.85 331.583 1068.85 325.75C1068.85 319.917 1070.52 314.917 1073.85 310.75C1077.19 306.417 1082.27 304.25 1089.1 304.25H1217.6C1224.44 304.25 1229.52 306.417 1232.85 310.75C1236.19 314.917 1237.85 319.917 1237.85 325.75C1237.85 331.583 1236.1 336.75 1232.6 341.25C1229.27 345.75 1224.27 348 1217.6 348H1179.35V523.5H1127.35V348Z" fill="url(#paint0_linear_15_1252)"/>
<defs>
<linearGradient id="paint0_linear_15_1252" x1="1367.78" y1="-49.7348" x2="-167.076" y2="542.81" gradientUnits="userSpaceOnUse">
<stop stop-color="#F7B03B"/>
<stop offset="1" stop-color="#FF6200"/>
</linearGradient>
</defs>
</svg>
