<svg width="1222" height="1419" viewBox="0 0 1222 1419" fill="none" xmlns="http://www.w3.org/2000/svg">
<path d="M28.2262 899.083L27.4407 1105.35C27.4407 1105.35 119.294 1206.1 194.187 1249.42C270.014 1293.28 319.419 1311.94 407.011 1323.73C493.941 1335.43 546.072 1329.28 631.564 1308.99C705.629 1291.41 1171.73 1304.55 1108.33 1264.06C998.44 1193.88 913.581 1162.99 963.272 1101.89C1010.53 1043.78 1036.24 1007.55 1060.16 937.317C1082.89 870.57 1084 759 1084 759" stroke="url(#paint0_linear_15_1248)" stroke-width="30" stroke-linejoin="round"/>
<path d="M28.5 374.5C28.5 374.5 100.618 299.168 156 262.999C232.049 213.333 282.161 191.893 371.5 175.499C451.011 160.909 498.445 164.265 578.5 175.499C647.73 185.214 687.424 193.545 751.5 221.499C817.978 250.501 854.653 272.362 908 321.499C977.154 385.197 1011.47 432.105 1043.5 520.499C1075.33 608.327 1084.5 759.5 1084.5 759.5" stroke="url(#paint1_linear_15_1248)" stroke-width="30"/>
<defs>
<linearGradient id="paint0_linear_15_1248" x1="542.28" y1="830.877" x2="610.729" y2="1346.76" gradientUnits="userSpaceOnUse">
<stop stop-color="#FF6200"/>
<stop offset="1" stop-color="#F7B03B"/>
</linearGradient>
<linearGradient id="paint1_linear_15_1248" x1="688.051" y1="196.479" x2="546.258" y2="570.686" gradientUnits="userSpaceOnUse">
<stop stop-color="#FF6200"/>
<stop offset="1" stop-color="#F7B03B"/>
</linearGradient>
</defs>
</svg>
