<svg width="1223" height="1420" viewBox="0 0 1223 1420" fill="none" xmlns="http://www.w3.org/2000/svg">
<path d="M28.7201 889.5L28.7201 1107.46C28.7201 1107.46 120.857 1209.34 195.938 1253.19C271.955 1297.59 321.472 1316.49 409.24 1328.5C496.344 1340.42 548.564 1334.27 634.191 1313.86C708.373 1296.19 1179.5 1298.5 1111.79 1269.02C991.603 1216.68 916.564 1166.69 966.278 1105.02C1013.55 1046.37 1039.27 1009.8 1063.16 938.872C1085.85 871.467 1085.5 759 1085.5 759" stroke="url(#paint0_linear_57_572)" stroke-width="30" stroke-linejoin="round"/>
<path d="M649.483 616.382C668.327 625.236 685.583 625.217 723.033 618.005C755.966 611.663 793.676 569.169 793.676 569.169" stroke="#FF6200" stroke-width="30"/>
<path d="M117.5 744.5C130.849 760.477 146.503 767.74 183.5 777C216.034 785.143 268.151 762.523 268.151 762.523" stroke="#F7B03B" stroke-width="30"/>
<path d="M904.75 665.769C904.75 665.769 786.575 719.428 705.449 721.967C643.465 723.907 651.663 559.184 637.321 511.173" stroke="#FF6200" stroke-width="30"/>
<path d="M912 650L938.291 820.952L1085.5 747.5" stroke="#FF6200" stroke-width="30"/>
<circle cx="132.5" cy="548.5" r="22" fill="#F7B03B" stroke="#F7B03B"/>
<circle cx="726.5" cy="373.5" r="22" fill="#FF6200" stroke="#FF6200"/>
<path d="M651.984 523.549C651.984 523.549 556.853 537.888 543.032 513.311C529.211 488.733 714 203 714 203" stroke="#FF6200" stroke-width="30"/>
<path d="M29.4995 374.5C29.4995 374.5 101.617 299.168 156.999 262.999C233.048 213.333 283.16 191.893 372.499 175.499C452.01 160.909 499.445 164.265 579.499 175.499C648.729 185.214 688.423 193.545 752.499 221.499C818.977 250.501 855.653 272.362 909 321.499C978.154 385.197 1012.47 432.105 1044.5 520.499C1076.33 608.327 1085.5 759.5 1085.5 759.5" stroke="url(#paint1_linear_57_572)" stroke-width="30"/>
<path d="M235.68 968.24H217.32C214.12 968.24 211.68 967.16 210 965C208.4 962.84 207.6 960.36 207.6 957.56C207.6 954.76 208.4 952.36 210 950.36C211.6 948.28 214.04 947.24 217.32 947.24H279C282.28 947.24 284.72 948.28 286.32 950.36C287.92 952.36 288.72 954.76 288.72 957.56C288.72 960.36 287.88 962.84 286.2 965C284.6 967.16 282.2 968.24 279 968.24H260.64V1052.48H235.68V968.24ZM291.722 981.92C291.722 973.28 293.722 966.24 297.722 960.8C301.722 955.28 306.762 951.32 312.842 948.92C318.922 946.52 325.282 945.32 331.922 945.32C338.402 945.32 344.682 946.52 350.762 948.92C356.922 951.32 362.002 955.28 366.002 960.8C370.082 966.24 372.122 973.28 372.122 981.92V1017.8C372.122 1026.44 370.082 1033.52 366.002 1039.04C362.002 1044.48 356.922 1048.4 350.762 1050.8C344.682 1053.2 338.402 1054.4 331.922 1054.4C325.442 1054.4 319.122 1053.2 312.962 1050.8C306.882 1048.4 301.802 1044.48 297.722 1039.04C293.722 1033.52 291.722 1026.44 291.722 1017.8V981.92ZM347.642 981.2C347.642 976.16 346.162 972.36 343.202 969.8C340.322 967.16 336.562 965.84 331.922 965.84C327.282 965.84 323.482 967.16 320.522 969.8C317.642 972.36 316.202 976.16 316.202 981.2V1018.52C316.202 1023.16 317.682 1026.88 320.642 1029.68C323.682 1032.48 327.442 1033.88 331.922 1033.88C336.402 1033.88 340.122 1032.48 343.082 1029.68C346.122 1026.88 347.642 1023.16 347.642 1018.52V981.2ZM383.522 957.56C383.522 955 384.242 952.8 385.682 950.96C387.122 949.12 388.882 947.76 390.962 946.88C393.122 945.92 395.242 945.44 397.322 945.44C400.202 945.44 402.922 946.08 405.482 947.36C408.042 948.56 409.882 950.28 411.002 952.52L440.282 1012.52V956.72C440.282 953.2 441.322 950.44 443.402 948.44C445.562 946.36 448.162 945.32 451.202 945.32C454.242 945.32 456.802 946.36 458.882 948.44C461.042 950.44 462.122 953.2 462.122 956.72V1042.4C462.122 1044.88 461.442 1047 460.082 1048.76C458.722 1050.52 457.002 1051.84 454.922 1052.72C452.842 1053.6 450.802 1054.04 448.802 1054.04C445.842 1054.04 443.002 1053.4 440.282 1052.12C437.562 1050.92 435.682 1049.2 434.642 1046.96L405.362 986.48V1052.48H383.522V957.56ZM532.64 988.88C535.84 988.88 538.24 989.96 539.84 992.12C541.52 994.28 542.36 996.72 542.36 999.44C542.36 1002.16 541.56 1004.56 539.96 1006.64C538.36 1008.64 535.92 1009.64 532.64 1009.64H499.88V1028C499.88 1029.44 500.12 1030.4 500.6 1030.88C501.08 1031.28 502 1031.48 503.36 1031.48H534.92C538.2 1031.48 540.64 1032.52 542.24 1034.6C543.84 1036.6 544.64 1039 544.64 1041.8C544.64 1044.6 543.8 1047.08 542.12 1049.24C540.52 1051.4 538.12 1052.48 534.92 1052.48H494C489.2 1052.48 485.44 1051.84 482.72 1050.56C480 1049.36 478.08 1047.4 476.96 1044.68C475.84 1041.96 475.28 1038.24 475.28 1033.52V966.2C475.28 961.48 475.84 957.76 476.96 955.04C478.08 952.32 480 950.36 482.72 949.16C485.44 947.88 489.2 947.24 494 947.24H533.72C536.92 947.24 539.32 948.32 540.92 950.48C542.6 952.64 543.44 955.12 543.44 957.92C543.44 960.72 542.64 963.16 541.04 965.24C539.44 967.24 537 968.24 533.72 968.24H503.36C502 968.24 501.08 968.48 500.6 968.96C500.12 969.36 499.88 970.28 499.88 971.72V988.88H532.64ZM236.52 1160.24C236.52 1165.6 238.12 1169.76 241.32 1172.72C244.6 1175.68 248.56 1177.16 253.2 1177.16C258.24 1177.16 262.48 1176.4 265.92 1174.88C266.88 1174.4 267.92 1173.92 269.04 1173.44C270.16 1172.88 271.2 1172.52 272.16 1172.36C273.12 1172.2 273.84 1172.12 274.32 1172.12C277.76 1172.12 280.48 1173.72 282.48 1176.92C283.44 1178.6 283.92 1180.28 283.92 1181.96C283.92 1183.56 283.52 1185.12 282.72 1186.64C281.92 1188.08 280.8 1189.4 279.36 1190.6C276.24 1193.16 272.32 1195.08 267.6 1196.36C262.88 1197.72 258.08 1198.4 253.2 1198.4C245.84 1198.4 239.04 1197.08 232.8 1194.44C226.56 1191.88 221.48 1187.84 217.56 1182.32C213.72 1176.72 211.8 1169.72 211.8 1161.32V1126.4C211.8 1118 213.72 1111.04 217.56 1105.52C221.48 1099.92 226.56 1095.84 232.8 1093.28C239.04 1090.64 245.84 1089.32 253.2 1089.32C258.32 1089.32 262.92 1089.88 267 1091C271.08 1092.04 274.36 1093.44 276.84 1095.2C278.6 1096.4 279.96 1097.88 280.92 1099.64C281.96 1101.32 282.48 1103.08 282.48 1104.92C282.48 1106.6 282.08 1108.12 281.28 1109.48C280.32 1111.24 279 1112.56 277.32 1113.44C275.72 1114.32 274 1114.76 272.16 1114.76C270.64 1114.76 269.12 1114.44 267.6 1113.8C266.16 1113.16 264.88 1112.6 263.76 1112.12C262.24 1111.56 260.68 1111.16 259.08 1110.92C257.56 1110.68 255.6 1110.56 253.2 1110.56C248.56 1110.56 244.6 1112.04 241.32 1115C238.12 1117.96 236.52 1122.12 236.52 1127.48V1160.24ZM291.722 1125.92C291.722 1117.28 293.722 1110.24 297.722 1104.8C301.722 1099.28 306.762 1095.32 312.842 1092.92C318.922 1090.52 325.282 1089.32 331.922 1089.32C338.402 1089.32 344.682 1090.52 350.762 1092.92C356.922 1095.32 362.002 1099.28 366.002 1104.8C370.082 1110.24 372.122 1117.28 372.122 1125.92V1161.8C372.122 1170.44 370.082 1177.52 366.002 1183.04C362.002 1188.48 356.922 1192.4 350.762 1194.8C344.682 1197.2 338.402 1198.4 331.922 1198.4C325.442 1198.4 319.122 1197.2 312.962 1194.8C306.882 1192.4 301.802 1188.48 297.722 1183.04C293.722 1177.52 291.722 1170.44 291.722 1161.8V1125.92ZM347.642 1125.2C347.642 1120.16 346.162 1116.36 343.202 1113.8C340.322 1111.16 336.562 1109.84 331.922 1109.84C327.282 1109.84 323.482 1111.16 320.522 1113.8C317.642 1116.36 316.202 1120.16 316.202 1125.2V1162.52C316.202 1167.16 317.682 1170.88 320.642 1173.68C323.682 1176.48 327.442 1177.88 331.922 1177.88C336.402 1177.88 340.122 1176.48 343.082 1173.68C346.122 1170.88 347.642 1167.16 347.642 1162.52V1125.2ZM383.522 1101.56C383.522 1099 384.242 1096.8 385.682 1094.96C387.122 1093.12 388.882 1091.76 390.962 1090.88C393.122 1089.92 395.242 1089.44 397.322 1089.44C400.202 1089.44 402.922 1090.08 405.482 1091.36C408.042 1092.56 409.882 1094.28 411.002 1096.52L440.282 1156.52V1100.72C440.282 1097.2 441.322 1094.44 443.402 1092.44C445.562 1090.36 448.162 1089.32 451.202 1089.32C454.242 1089.32 456.802 1090.36 458.882 1092.44C461.042 1094.44 462.122 1097.2 462.122 1100.72V1186.4C462.122 1188.88 461.442 1191 460.082 1192.76C458.722 1194.52 457.002 1195.84 454.922 1196.72C452.842 1197.6 450.802 1198.04 448.802 1198.04C445.842 1198.04 443.002 1197.4 440.282 1196.12C437.562 1194.92 435.682 1193.2 434.642 1190.96L405.362 1130.48V1196.48H383.522V1101.56ZM475.28 1101.56C475.28 1099 476 1096.8 477.44 1094.96C478.88 1093.12 480.64 1091.76 482.72 1090.88C484.88 1089.92 487 1089.44 489.08 1089.44C491.96 1089.44 494.68 1090.08 497.24 1091.36C499.8 1092.56 501.64 1094.28 502.76 1096.52L532.04 1156.52V1100.72C532.04 1097.2 533.08 1094.44 535.16 1092.44C537.32 1090.36 539.92 1089.32 542.96 1089.32C546 1089.32 548.56 1090.36 550.64 1092.44C552.8 1094.44 553.88 1097.2 553.88 1100.72V1186.4C553.88 1188.88 553.2 1191 551.84 1192.76C550.48 1194.52 548.76 1195.84 546.68 1196.72C544.6 1197.6 542.56 1198.04 540.56 1198.04C537.6 1198.04 534.76 1197.4 532.04 1196.12C529.32 1194.92 527.44 1193.2 526.4 1190.96L497.12 1130.48V1196.48H475.28V1101.56ZM624.398 1132.88C627.598 1132.88 629.998 1133.96 631.598 1136.12C633.278 1138.28 634.118 1140.72 634.118 1143.44C634.118 1146.16 633.318 1148.56 631.718 1150.64C630.118 1152.64 627.678 1153.64 624.398 1153.64H591.638V1172C591.638 1173.44 591.878 1174.4 592.358 1174.88C592.838 1175.28 593.758 1175.48 595.118 1175.48H626.678C629.958 1175.48 632.398 1176.52 633.998 1178.6C635.598 1180.6 636.398 1183 636.398 1185.8C636.398 1188.6 635.558 1191.08 633.878 1193.24C632.278 1195.4 629.878 1196.48 626.678 1196.48H585.758C580.958 1196.48 577.198 1195.84 574.478 1194.56C571.758 1193.36 569.838 1191.4 568.718 1188.68C567.598 1185.96 567.038 1182.24 567.038 1177.52V1110.2C567.038 1105.48 567.598 1101.76 568.718 1099.04C569.838 1096.32 571.758 1094.36 574.478 1093.16C577.198 1091.88 580.958 1091.24 585.758 1091.24H625.478C628.678 1091.24 631.078 1092.32 632.678 1094.48C634.358 1096.64 635.198 1099.12 635.198 1101.92C635.198 1104.72 634.398 1107.16 632.798 1109.24C631.198 1111.24 628.758 1112.24 625.478 1112.24H595.118C593.758 1112.24 592.838 1112.48 592.358 1112.96C591.878 1113.36 591.638 1114.28 591.638 1115.72V1132.88H624.398ZM669.528 1160.24C669.528 1165.6 671.128 1169.76 674.328 1172.72C677.608 1175.68 681.568 1177.16 686.208 1177.16C691.248 1177.16 695.488 1176.4 698.928 1174.88C699.888 1174.4 700.928 1173.92 702.048 1173.44C703.168 1172.88 704.208 1172.52 705.168 1172.36C706.128 1172.2 706.848 1172.12 707.328 1172.12C710.768 1172.12 713.488 1173.72 715.488 1176.92C716.448 1178.6 716.928 1180.28 716.928 1181.96C716.928 1183.56 716.528 1185.12 715.728 1186.64C714.928 1188.08 713.808 1189.4 712.368 1190.6C709.248 1193.16 705.328 1195.08 700.608 1196.36C695.888 1197.72 691.088 1198.4 686.208 1198.4C678.848 1198.4 672.048 1197.08 665.808 1194.44C659.568 1191.88 654.488 1187.84 650.568 1182.32C646.728 1176.72 644.808 1169.72 644.808 1161.32V1126.4C644.808 1118 646.728 1111.04 650.568 1105.52C654.488 1099.92 659.568 1095.84 665.808 1093.28C672.048 1090.64 678.848 1089.32 686.208 1089.32C691.328 1089.32 695.928 1089.88 700.008 1091C704.088 1092.04 707.368 1093.44 709.848 1095.2C711.608 1096.4 712.968 1097.88 713.928 1099.64C714.968 1101.32 715.488 1103.08 715.488 1104.92C715.488 1106.6 715.088 1108.12 714.288 1109.48C713.328 1111.24 712.008 1112.56 710.328 1113.44C708.728 1114.32 707.008 1114.76 705.168 1114.76C703.648 1114.76 702.128 1114.44 700.608 1113.8C699.168 1113.16 697.888 1112.6 696.768 1112.12C695.248 1111.56 693.688 1111.16 692.088 1110.92C690.568 1110.68 688.608 1110.56 686.208 1110.56C681.568 1110.56 677.608 1112.04 674.328 1115C671.128 1117.96 669.528 1122.12 669.528 1127.48V1160.24ZM748.61 1112.24H730.25C727.05 1112.24 724.61 1111.16 722.93 1109C721.33 1106.84 720.53 1104.36 720.53 1101.56C720.53 1098.76 721.33 1096.36 722.93 1094.36C724.53 1092.28 726.97 1091.24 730.25 1091.24H791.93C795.21 1091.24 797.65 1092.28 799.25 1094.36C800.85 1096.36 801.65 1098.76 801.65 1101.56C801.65 1104.36 800.81 1106.84 799.13 1109C797.53 1111.16 795.13 1112.24 791.93 1112.24H773.57V1196.48H748.61V1112.24Z" fill="url(#paint2_linear_57_572)"/>
<path d="M230.377 648.055C230.377 648.055 319.003 641.252 326.357 617.278C333.712 593.305 11.0002 376 11.0002 376" stroke="#F7B03B" stroke-width="30"/>
<path d="M13 898C13 898 156.918 902.533 243.703 871.337C310.01 847.501 243.631 686.13 241.999 632.138" stroke="#F7B03B" stroke-width="30"/>
<defs>
<linearGradient id="paint0_linear_57_572" x1="544.2" y1="830.755" x2="613.36" y2="1352" gradientUnits="userSpaceOnUse">
<stop stop-color="#FF6200"/>
<stop offset="1" stop-color="#F7B03B"/>
</linearGradient>
<linearGradient id="paint1_linear_57_572" x1="689.05" y1="196.479" x2="547.258" y2="570.686" gradientUnits="userSpaceOnUse">
<stop stop-color="#FF6200"/>
<stop offset="1" stop-color="#F7B03B"/>
</linearGradient>
<linearGradient id="paint2_linear_57_572" x1="812.583" y1="1212.23" x2="206.911" y2="1220.35" gradientUnits="userSpaceOnUse">
<stop stop-color="#FF6200"/>
<stop offset="0.9999" stop-color="#F7B03B"/>
</linearGradient>
</defs>
</svg>
